<?xml version="1.0" standalone="no"?>
<!DOCTYPE svg PUBLIC "-//W3C//DTD SVG 20010904//EN"
 "http://www.w3.org/TR/2001/REC-SVG-20010904/DTD/svg10.dtd">
<svg version="1.0" xmlns="http://www.w3.org/2000/svg"
 width="640.000000pt" height="640.000000pt" viewBox="0 0 640.000000 640.000000"
 preserveAspectRatio="xMidYMid meet">
<metadata>
Created by potrace 1.14, written by Peter Selinger 2001-2017
</metadata>
<g transform="translate(0.000000,640.000000) scale(0.100000,-0.100000)"
fill="#000000" stroke="none">
<path d="M3226 6129 c-12 -11 -29 -17 -43 -15 -13 3 -21 1 -18 -5 4 -5 -2 -9
-12 -9 -11 0 -24 -5 -31 -12 -7 -7 -12 -8 -12 -3 0 5 -7 0 -16 -11 -8 -10 -13
-13 -9 -6 3 6 1 12 -4 12 -6 0 -11 -4 -11 -10 0 -5 -7 -7 -15 -4 -8 4 -15 2
-15 -3 0 -9 -6 -11 -50 -15 -11 -1 -20 -6 -20 -10 0 -4 -3 -7 -7 -7 -24 4 -53
-2 -49 -10 4 -5 -4 -7 -16 -3 -13 3 -19 1 -15 -5 4 -6 0 -14 -9 -17 -9 -3 -12
-2 -8 5 3 6 -3 5 -15 -3 -12 -7 -21 -16 -21 -21 0 -4 -4 -5 -10 -2 -5 3 -10 1
-10 -6 0 -7 -3 -9 -7 -6 -3 4 -20 -8 -36 -26 -17 -17 -27 -26 -23 -19 10 17
-2 15 -21 -3 -8 -8 -19 -12 -25 -9 -6 4 -8 2 -5 -3 4 -6 0 -14 -9 -17 -8 -3
-12 -11 -8 -17 4 -7 3 -9 -3 -6 -6 4 -19 -1 -29 -9 -10 -9 -13 -12 -5 -8 9 5
12 3 7 -4 -4 -7 -11 -12 -17 -12 -5 0 -18 -9 -29 -20 -12 -12 -26 -18 -33 -13
-7 4 -6 -1 3 -13 8 -10 11 -16 6 -12 -10 8 -51 -11 -42 -19 3 -3 -9 -13 -27
-22 -17 -9 -31 -22 -30 -28 2 -8 -4 -10 -14 -6 -11 4 -14 3 -9 -5 4 -7 1 -12
-8 -12 -9 0 -16 -4 -16 -10 0 -5 -7 -10 -15 -10 -8 0 -12 -6 -9 -14 3 -9 -4
-16 -21 -20 -14 -4 -23 -11 -20 -15 3 -5 -1 -16 -9 -24 -11 -11 -12 -17 -3
-27 9 -10 9 -11 0 -6 -11 6 -30 -29 -25 -47 1 -5 -2 -6 -8 -2 -5 3 -10 1 -10
-5 0 -6 -4 -8 -10 -5 -5 3 -10 0 -10 -8 0 -14 -50 -63 -50 -49 0 4 -5 -1 -11
-12 -9 -15 -13 -16 -20 -5 -7 11 -9 10 -9 -4 0 -10 -4 -15 -10 -12 -5 3 -10
-2 -10 -11 0 -10 -3 -15 -6 -11 -3 3 -17 -5 -31 -19 -13 -13 -29 -22 -34 -18
-5 3 -9 2 -8 -3 4 -21 -2 -34 -13 -27 -7 4 -8 3 -4 -5 4 -6 1 -23 -8 -36 -15
-23 -15 -24 1 -19 17 5 17 5 0 -9 -10 -8 -17 -19 -16 -23 4 -23 -2 -35 -13
-28 -9 5 -9 2 1 -9 7 -9 9 -17 4 -17 -6 0 -10 -10 -9 -22 1 -14 -4 -22 -11
-21 -7 2 -13 -4 -13 -13 0 -8 5 -12 11 -8 6 3 3 -5 -6 -20 -10 -14 -22 -26
-27 -26 -5 0 -6 -4 -3 -10 3 -5 -1 -10 -10 -10 -12 0 -15 -5 -11 -17 4 -10 4
-14 0 -10 -4 4 -18 -3 -31 -15 -13 -12 -23 -18 -23 -15 0 4 -8 -1 -18 -10 -11
-10 -17 -21 -15 -25 2 -4 -6 -9 -16 -13 -13 -4 -18 -11 -14 -22 5 -12 3 -14
-8 -8 -8 4 -11 5 -7 0 4 -4 2 -15 -5 -23 -10 -13 -9 -14 3 -7 13 8 13 6 2 -8
-8 -9 -10 -22 -6 -28 4 -7 3 -9 -3 -6 -13 8 -21 -9 -19 -45 1 -14 -2 -24 -6
-22 -3 2 -9 0 -13 -6 -3 -5 -1 -10 6 -10 9 0 9 -3 0 -14 -9 -11 -9 -16 0 -21
8 -6 8 -9 -1 -15 -6 -4 -13 -27 -14 -51 -5 -62 -5 -61 -18 -53 -7 5 -8 3 -2
-7 12 -19 14 -39 4 -39 -5 0 -7 -8 -5 -17 1 -10 -3 -24 -9 -32 -9 -12 -8 -13
4 -6 12 6 13 5 3 -6 -17 -17 -17 -61 0 -78 10 -10 8 -11 -6 -5 -15 5 -16 3 -8
-20 7 -16 7 -27 1 -31 -7 -4 -6 -13 0 -26 6 -10 7 -19 2 -19 -4 0 -8 -9 -8
-19 0 -11 4 -18 7 -15 4 2 10 0 14 -6 3 -5 0 -10 -7 -10 -9 0 -9 -3 2 -10 13
-9 13 -10 0 -10 -9 0 -11 -3 -5 -8 15 -10 19 -46 5 -37 -9 5 -8 0 1 -16 7 -13
13 -24 13 -25 1 0 -6 -9 -14 -19 -11 -14 -11 -17 -1 -11 10 7 12 3 6 -14 -5
-17 -4 -21 6 -15 9 6 11 2 7 -13 -4 -12 -2 -22 4 -22 6 0 8 -7 4 -15 -3 -8 0
-15 7 -15 7 0 14 -11 15 -25 3 -47 5 -55 13 -55 5 0 6 -7 3 -15 -4 -8 1 -26 9
-38 9 -15 12 -29 7 -37 -5 -8 -4 -22 2 -33 5 -11 6 -17 1 -14 -5 4 -10 0 -10
-8 0 -8 4 -12 9 -9 4 3 8 -2 8 -10 0 -9 6 -16 13 -16 8 0 7 -4 -3 -10 -8 -5
-10 -10 -4 -10 7 0 12 -10 11 -22 -1 -30 6 -51 18 -60 6 -5 5 -8 -3 -8 -10 0
-10 -5 -2 -20 8 -15 8 -20 -2 -20 -8 0 -9 -3 -3 -8 15 -11 42 -47 29 -39 -6 3
-11 0 -11 -8 0 -8 4 -12 7 -10 11 7 39 -56 32 -73 -4 -11 -2 -13 8 -7 10 6 12
4 7 -8 -3 -10 -3 -17 2 -17 4 0 6 -12 3 -26 -3 -16 1 -30 9 -35 12 -7 12 -9 0
-9 -9 0 -10 -4 -4 -12 11 -15 11 -28 0 -45 -5 -8 -4 -13 2 -13 6 0 11 -10 11
-23 0 -13 6 -29 12 -36 10 -11 10 -13 1 -7 -9 5 -13 0 -13 -13 0 -12 6 -21 13
-21 7 0 8 -3 2 -8 -12 -9 -13 -38 -1 -49 5 -5 6 -2 1 6 -5 10 -4 12 4 7 6 -4
8 -12 4 -19 -12 -19 -9 -59 4 -64 11 -4 11 -8 1 -21 -11 -13 -11 -14 0 -8 9 5
13 3 11 -5 -3 -24 1 -40 9 -36 4 3 8 -6 8 -19 1 -14 -2 -21 -9 -17 -6 3 -7 1
-3 -6 4 -6 11 -9 16 -6 5 3 11 1 15 -5 3 -5 0 -10 -7 -10 -10 0 -10 -2 1 -9 8
-5 10 -14 6 -21 -5 -9 -4 -11 3 -6 7 4 12 1 12 -8 0 -9 5 -16 11 -16 5 0 7 -4
4 -10 -3 -5 1 -10 9 -10 9 0 13 -6 10 -13 -3 -8 3 -20 13 -28 17 -13 17 -13 3
5 -9 12 -10 17 -2 12 6 -4 19 -21 27 -37 9 -16 20 -27 25 -24 4 3 14 -8 21
-24 7 -16 17 -27 21 -25 4 3 8 0 8 -6 0 -6 4 -8 10 -5 6 3 10 1 10 -6 0 -6 8
-18 18 -25 14 -11 14 -13 2 -14 -13 0 -13 -1 0 -10 13 -8 13 -11 1 -19 -11 -7
-10 -10 4 -18 11 -7 14 -13 7 -17 -7 -4 -6 -15 3 -33 8 -15 12 -30 9 -35 -3
-4 0 -8 5 -8 6 0 11 -7 11 -15 0 -8 4 -15 8 -15 4 0 8 -10 9 -22 1 -11 7 -24
14 -28 8 -6 8 -9 -2 -13 -10 -4 -10 -6 -1 -6 6 -1 12 -7 12 -15 0 -7 9 -16 20
-19 11 -3 20 -13 20 -22 0 -9 4 -13 10 -10 5 3 7 0 5 -8 -3 -7 5 -19 20 -27
18 -10 22 -16 13 -22 -10 -6 -10 -8 0 -8 6 0 12 -7 12 -16 0 -9 8 -23 18 -30
11 -9 13 -13 4 -14 -9 0 -11 -7 -6 -22 4 -13 7 -35 6 -50 0 -16 2 -28 6 -28 4
0 7 -14 7 -30 1 -16 -3 -30 -7 -30 -5 0 -5 -8 -1 -18 10 -21 10 -53 0 -70 -5
-7 -3 -12 3 -12 11 0 7 -40 -6 -61 -5 -8 -3 -9 5 -5 15 10 11 -25 -4 -36 -7
-5 -6 -11 1 -15 11 -9 12 -52 0 -71 -4 -7 -2 -12 4 -12 7 0 8 -6 0 -19 -7 -14
-6 -21 3 -24 7 -3 4 -6 -6 -6 -14 -1 -16 -5 -8 -19 7 -14 6 -25 -6 -42 -9 -13
-11 -20 -5 -16 8 5 10 2 6 -8 -3 -9 -10 -16 -16 -16 -5 0 -6 -4 -3 -10 3 -5
-1 -20 -10 -33 -8 -13 -12 -27 -8 -30 3 -4 1 -7 -6 -7 -7 0 -10 -4 -7 -9 3 -5
-1 -12 -10 -15 -8 -3 -13 -10 -10 -15 3 -5 -1 -11 -9 -15 -8 -3 -15 -11 -15
-19 0 -17 -44 -59 -53 -50 -4 3 -7 1 -7 -6 0 -7 -7 -19 -15 -27 -8 -9 -15 -12
-15 -8 0 4 -7 -1 -16 -12 -8 -10 -13 -14 -9 -7 4 9 -1 9 -20 -1 -14 -7 -39
-12 -55 -11 -16 1 -27 -1 -24 -6 4 -8 -31 -14 -39 -6 -6 5 -35 -28 -30 -36 4
-6 -12 -11 -29 -8 -5 0 -7 -2 -7 -7 4 -22 -3 -34 -16 -28 -9 3 -18 -1 -21 -8
-3 -8 -14 -13 -25 -11 -10 2 -19 -1 -19 -7 0 -6 -3 -8 -7 -5 -3 4 -13 1 -21
-6 -13 -10 -14 -9 -7 3 6 12 5 13 -6 3 -7 -7 -24 -13 -37 -13 -13 0 -21 -3
-18 -8 2 -4 -18 -7 -45 -7 -27 0 -49 -4 -49 -8 0 -5 -4 -6 -9 -3 -5 4 -11 1
-13 -5 -2 -6 -15 -12 -28 -13 -15 -1 -24 -7 -22 -15 1 -7 -2 -9 -9 -5 -6 3
-15 0 -20 -7 -6 -10 -9 -10 -9 -2 0 9 -6 7 -19 -4 -11 -9 -18 -20 -15 -24 2
-4 -5 -5 -16 -2 -12 3 -20 0 -20 -8 0 -7 -3 -9 -6 -6 -4 3 -15 -5 -26 -18 -11
-14 -28 -25 -39 -25 -11 0 -18 -4 -15 -8 2 -4 -5 -9 -16 -9 -11 -1 -26 -10
-32 -19 -9 -12 -15 -14 -20 -6 -5 9 -11 9 -20 -1 -8 -6 -12 -15 -10 -19 3 -4
-5 -5 -16 -3 -12 2 -23 -2 -27 -10 -3 -8 -10 -12 -16 -8 -5 3 -16 -3 -24 -13
-8 -10 -17 -18 -21 -18 -14 3 -52 -16 -52 -25 0 -6 -6 -8 -13 -5 -8 3 -25 -6
-37 -19 -14 -14 -30 -22 -39 -19 -8 3 -12 1 -8 -5 5 -7 -1 -9 -15 -5 -16 4
-19 2 -13 -8 6 -10 2 -12 -18 -8 -19 4 -24 1 -19 -10 3 -10 1 -13 -6 -8 -6 3
-13 2 -17 -4 -3 -5 -15 -10 -26 -10 -13 0 -18 -4 -13 -12 5 -8 2 -9 -9 -5 -10
3 -17 2 -17 -3 0 -6 -7 -10 -15 -10 -9 0 -18 -7 -22 -16 -3 -8 -11 -13 -17
-11 -14 6 -37 -18 -28 -29 4 -4 -1 -4 -10 -1 -12 4 -18 1 -18 -10 0 -13 -3
-13 -16 -3 -12 11 -15 11 -12 -1 2 -8 -3 -13 -11 -11 -11 2 -12 0 -3 -10 9
-11 6 -14 -11 -15 -12 -1 -23 -7 -25 -13 -3 -7 -8 -7 -19 1 -8 7 -13 8 -12 3
4 -22 -2 -33 -16 -28 -8 4 -15 1 -15 -5 0 -6 -3 -10 -8 -10 -19 3 -33 -2 -27
-11 9 -14 -8 -12 -24 2 -8 8 -11 8 -8 2 4 -7 -1 -18 -10 -25 -12 -10 -14 -10
-9 -1 4 6 3 12 -3 12 -5 0 -13 -5 -16 -10 -4 -6 -11 -7 -17 -4 -8 5 -9 1 -5
-10 4 -10 3 -15 -3 -11 -6 3 -10 0 -10 -7 0 -10 -3 -9 -10 2 -8 12 -10 12 -16
-3 -3 -9 -10 -15 -14 -12 -4 3 -11 -2 -14 -11 -3 -8 -11 -12 -16 -9 -6 4 -17
1 -25 -5 -11 -10 -15 -10 -15 -1 0 7 -5 9 -10 6 -6 -4 -7 -11 -4 -17 5 -7 1
-9 -9 -5 -9 3 -19 2 -23 -4 -4 -6 -12 -5 -22 3 -12 10 -14 10 -8 0 4 -7 1 -15
-8 -18 -9 -3 -13 -11 -9 -18 4 -6 -1 -5 -10 3 -15 12 -17 11 -17 -2 0 -11 -7
-15 -20 -12 -11 2 -18 0 -15 -6 4 -5 -3 -9 -15 -9 -12 0 -19 -4 -15 -9 3 -5 0
-13 -6 -17 -8 -4 -9 -3 -5 4 4 7 1 12 -9 12 -8 0 -18 -7 -21 -15 -4 -8 -10
-12 -15 -9 -5 3 -9 2 -9 -3 0 -4 -14 -14 -30 -21 -17 -8 -28 -18 -25 -23 4 -5
-2 -6 -11 -2 -13 5 -15 3 -9 -8 7 -11 5 -11 -10 1 -10 8 -16 11 -14 5 3 -5 -2
-18 -13 -28 -12 -11 -18 -13 -18 -5 0 8 -7 5 -15 -6 -8 -11 -15 -16 -15 -10 0
5 -5 2 -10 -7 -6 -10 -20 -15 -35 -14 -14 2 -23 -1 -19 -6 3 -5 1 -9 -4 -9 -5
0 -8 -64 -8 -143 l0 -143 3196 0 3196 0 0 241 c0 161 -3 242 -10 247 -7 5 -7
8 2 8 18 0 -11 30 -30 30 -10 0 -9 3 2 10 12 7 12 10 1 10 -7 0 -11 6 -8 14 4
10 1 13 -7 10 -8 -3 -17 0 -22 7 -5 8 -3 10 7 4 8 -4 5 1 -6 12 -11 11 -23 19
-27 16 -5 -2 -8 1 -8 6 0 6 -5 11 -11 11 -5 0 -7 -6 -4 -12 4 -7 -2 -3 -12 8
-23 28 -69 53 -58 32 3 -7 0 -5 -8 4 -16 20 -32 25 -21 7 8 -13 -57 21 -67 35
-4 5 -19 8 -34 8 -14 0 -29 7 -32 15 -3 8 -12 12 -19 9 -8 -3 -14 -1 -14 4 0
6 -9 10 -20 10 -11 0 -20 4 -20 10 0 5 -6 9 -12 7 -7 -1 -12 4 -10 11 1 8 -2
11 -8 7 -6 -4 -18 -1 -27 7 -12 9 -15 9 -9 1 4 -7 2 -13 -4 -13 -6 0 -13 7
-17 16 -5 13 -7 13 -14 2 -7 -10 -9 -10 -9 0 0 6 -11 12 -25 12 -14 0 -25 5
-25 12 0 6 -3 8 -7 5 -3 -4 -13 -1 -21 6 -13 10 -15 9 -8 -3 4 -8 1 -7 -7 3
-11 14 -16 15 -20 5 -4 -10 -6 -10 -6 0 -1 6 -12 12 -26 12 -14 0 -25 5 -25
11 0 5 -4 8 -9 4 -5 -3 -16 2 -24 10 -12 11 -17 12 -20 2 -4 -9 -6 -9 -6 1 -1
6 -10 12 -21 12 -11 0 -20 5 -20 11 0 5 -4 7 -10 4 -5 -3 -10 2 -10 12 0 15
-2 16 -10 3 -9 -13 -10 -13 -10 0 0 12 -2 13 -9 1 -7 -11 -10 -9 -16 8 -5 16
-10 19 -19 12 -8 -7 -15 -4 -24 9 -8 14 -21 19 -41 16 -23 -3 -28 0 -23 13 5
14 4 14 -13 1 -14 -11 -19 -12 -22 -2 -3 6 -9 10 -14 6 -5 -3 -23 1 -39 10
-20 9 -28 10 -24 3 5 -8 3 -8 -7 0 -7 7 -21 13 -31 13 -10 0 -18 4 -18 9 0 5
-7 12 -16 15 -8 3 -12 2 -9 -4 3 -6 -1 -7 -9 -4 -9 3 -13 10 -10 15 3 5 0 9
-5 9 -6 0 -11 -5 -11 -11 0 -6 -7 -3 -16 5 -8 9 -19 14 -24 11 -5 -3 -11 -1
-15 4 -3 5 -14 8 -25 6 -11 -2 -20 1 -20 7 0 6 -3 8 -7 5 -3 -4 -13 -1 -21 6
-13 10 -14 9 -8 -1 7 -11 4 -11 -12 -1 -12 7 -18 18 -15 24 3 5 1 5 -6 -1 -10
-9 -20 -8 -42 3 -16 8 -29 18 -29 22 0 4 -6 8 -12 9 -59 5 -97 16 -91 26 4 6
-2 4 -12 -4 -11 -9 -16 -10 -11 -2 6 11 -5 17 -26 13 -5 0 -8 4 -8 9 0 6 -7
10 -15 10 -8 0 -15 5 -15 10 0 6 -6 10 -14 10 -8 0 -24 13 -37 29 -13 16 -26
28 -30 25 -3 -2 -17 5 -29 16 -26 23 -34 25 -24 7 6 -9 5 -9 -8 0 -8 7 -18 10
-21 6 -4 -3 -7 -1 -7 5 0 6 -7 9 -15 6 -8 -4 -23 0 -32 7 -14 12 -15 12 -9 1
7 -11 4 -12 -12 -3 -12 6 -23 15 -27 20 -3 6 -14 8 -25 6 -13 -3 -18 0 -14 7
5 8 1 9 -10 5 -14 -6 -17 -3 -12 9 5 14 4 15 -8 5 -12 -10 -17 -9 -28 8 -7 12
-19 21 -26 21 -7 0 -10 5 -7 10 3 5 1 10 -4 10 -6 0 -11 7 -11 15 0 8 -6 15
-12 15 -9 0 -10 3 -2 8 13 8 15 42 2 42 -9 0 -4 43 8 61 4 7 3 9 -4 5 -7 -4
-10 1 -9 14 1 11 5 20 9 20 5 0 5 8 1 18 -10 21 -10 93 1 110 4 7 2 12 -6 12
-8 1 -6 6 6 15 10 8 15 19 10 26 -5 8 -3 10 6 4 10 -6 12 -4 7 8 -4 11 -1 17
8 17 8 0 15 6 15 14 0 8 7 17 16 20 13 5 14 9 4 21 -11 13 -10 14 4 9 11 -4
16 -2 14 7 -2 8 2 13 9 12 7 -2 10 4 7 12 -4 8 -1 15 5 15 6 0 11 3 10 8 -3
19 14 51 25 45 6 -4 5 1 -3 10 -7 9 -9 17 -4 17 13 0 41 53 36 67 -3 7 3 16
11 19 13 5 14 9 5 20 -9 11 -8 15 5 20 9 3 13 10 10 15 -3 5 1 9 8 9 11 0 10
2 0 9 -11 7 -10 10 3 15 9 3 15 12 12 19 -2 6 2 17 10 22 7 6 14 24 16 41 1
25 6 31 20 28 12 -2 15 1 10 9 -10 16 -13 38 -4 33 8 -5 37 80 40 120 0 9 6
12 13 8 7 -4 8 -3 4 4 -4 6 0 26 9 43 9 17 12 28 7 25 -6 -3 -12 1 -15 9 -4
10 -1 12 11 8 9 -3 14 -3 10 2 -4 4 -3 14 3 22 9 10 8 13 -1 13 -9 0 -9 4 -3
13 6 6 11 20 12 30 3 40 5 47 14 47 5 0 3 8 -4 17 -10 11 -10 14 -1 9 11 -7
16 6 15 41 -1 7 4 10 9 7 6 -4 8 2 3 15 -4 14 -2 21 7 21 10 0 9 3 -2 10 -11
7 -11 10 -2 10 7 0 11 4 7 9 -3 5 -1 12 3 15 5 3 8 17 7 31 -2 18 2 25 13 25
11 0 13 3 6 8 -13 9 -9 45 6 50 5 2 7 9 3 15 -11 18 -11 47 0 47 5 0 7 7 3 15
-3 8 0 15 6 15 6 0 5 6 -3 17 -12 15 -12 16 1 8 13 -7 13 -6 2 7 -9 12 -10 17
-1 20 7 2 12 46 15 128 5 177 5 180 16 180 5 0 6 5 3 10 -4 6 -1 18 7 27 9 12
9 15 1 9 -9 -5 -11 -2 -7 8 3 9 10 16 15 16 5 0 8 3 7 8 -2 11 14 46 26 54 6
4 11 11 11 16 0 18 57 58 77 54 4 -1 5 5 2 13 -6 13 11 20 38 16 4 0 5 6 2 14
-4 9 0 15 10 15 10 0 13 6 9 18 -3 9 -3 14 2 10 11 -10 47 11 40 23 -4 5 -2 9
3 9 5 0 9 10 8 23 -1 12 5 29 13 37 10 10 10 15 2 18 -9 3 -7 11 5 29 9 15 11
22 3 18 -9 -6 -10 -3 -4 11 4 10 7 27 7 37 -1 13 4 17 14 13 12 -4 12 -2 4 14
-9 16 -8 22 5 26 8 3 12 10 9 15 -3 5 2 9 10 9 10 0 13 6 9 17 -4 11 -3 14 5
9 7 -4 12 -2 12 3 0 6 -5 11 -11 11 -7 0 -5 10 5 25 9 14 14 30 11 35 -3 6 -1
10 6 10 7 0 9 3 6 7 -4 3 -2 12 4 20 9 10 8 13 -1 13 -10 0 -10 3 0 15 7 9 8
15 2 15 -5 0 -8 9 -5 20 3 11 10 17 17 13 7 -4 6 -1 -1 9 -7 8 -10 18 -6 22 4
4 1 11 -7 16 -13 8 -13 10 1 10 12 0 14 8 11 31 -4 25 -2 30 9 24 12 -8 12 -6
1 8 -8 9 -12 22 -9 29 2 7 0 21 -5 32 -7 13 -7 16 1 11 8 -4 10 2 7 21 -3 15
-2 32 1 37 11 19 10 96 -1 90 -6 -4 -5 1 2 10 8 9 11 21 7 27 -3 5 -1 10 4 10
6 0 11 5 11 11 0 5 -6 7 -12 3 -10 -6 -10 -5 -1 8 7 8 10 18 6 21 -3 4 0 7 8
7 12 0 12 2 0 9 -12 8 -12 12 -2 24 8 11 9 17 1 22 -8 5 -8 11 -1 19 6 7 8 16
4 19 -3 4 0 7 7 7 9 0 7 7 -6 22 -12 13 -13 18 -4 13 13 -7 13 -6 2 7 -7 9
-14 29 -15 46 -1 16 -4 29 -7 27 -3 -2 -10 8 -17 21 -8 18 -8 22 0 17 9 -5 9
-3 1 8 -12 14 -28 68 -26 81 1 4 -5 5 -13 2 -11 -4 -13 -2 -10 9 4 8 -1 21 -9
30 -8 8 -12 17 -9 21 4 3 1 6 -6 6 -7 0 -10 4 -7 9 4 5 0 12 -6 14 -10 4 -9 6
1 6 10 1 7 7 -7 20 -12 10 -19 20 -17 23 3 3 -7 18 -22 34 -15 16 -26 30 -25
32 7 8 0 22 -8 17 -5 -3 -10 -1 -10 5 0 6 -4 8 -10 5 -6 -3 -7 1 -4 9 4 10 -1
18 -11 22 -13 5 -14 9 -3 15 10 7 9 9 -4 9 -12 0 -16 6 -13 20 2 11 0 18 -6
15 -5 -4 -9 5 -9 19 0 13 -6 27 -12 29 -9 4 -9 6 1 6 11 1 10 5 -5 16 -10 8
-14 15 -7 15 14 0 5 40 -9 40 -6 0 -8 6 -5 14 3 7 0 19 -6 25 -6 6 -8 11 -3
11 4 0 0 7 -9 16 -9 9 -14 23 -11 30 3 7 -3 18 -12 23 -9 6 -13 11 -9 11 4 0
-2 10 -13 22 -11 12 -18 28 -16 35 3 7 -1 13 -9 13 -14 0 -19 12 -16 33 0 4
-4 7 -9 7 -6 0 -10 7 -10 15 0 8 -5 15 -11 15 -5 0 -7 5 -3 12 5 8 2 9 -9 5
-9 -3 -16 -3 -16 1 3 18 -2 33 -9 28 -4 -3 -16 11 -27 29 -10 19 -26 37 -37
41 -10 3 -15 10 -12 16 4 5 -4 4 -17 -3 -23 -12 -23 -11 -9 7 8 10 11 16 6 12
-5 -4 -17 -3 -28 3 -23 12 -55 21 -85 22 -13 1 -23 4 -23 8 0 4 -13 9 -30 11
-17 3 -30 0 -30 -6 0 -6 -4 -5 -9 3 -5 7 -14 10 -20 7 -6 -4 -11 -2 -11 4 0 6
-4 9 -9 5 -5 -3 -12 -1 -16 4 -3 6 -13 7 -22 4 -11 -4 -14 -3 -9 5 5 8 0 12
-14 12 -14 0 -19 -4 -15 -12 4 -7 -1 -4 -9 6 -12 15 -16 16 -16 5 -1 -11 -3
-10 -10 3 -8 13 -17 15 -40 8 -17 -5 -28 -5 -25 0 8 13 -18 18 -39 7 -15 -7
-18 -6 -14 5 4 10 -3 13 -26 13 -17 -1 -38 -5 -45 -9 -8 -5 -17 -3 -22 5 -5 9
-9 9 -9 2 0 -6 -13 -10 -29 -9 -17 1 -27 -2 -24 -6 2 -5 -8 -7 -23 -5 -15 2
-33 12 -38 23 -6 10 -19 26 -28 35 -10 9 -14 19 -11 23 4 4 0 4 -10 0 -9 -3
-17 -2 -17 3 0 5 -7 10 -15 11 -8 1 -22 3 -29 4 -8 1 -14 6 -13 12 1 6 -8 12
-21 14 -13 2 -20 8 -16 14 5 7 1 9 -9 5 -11 -4 -17 -1 -17 8 0 7 -5 17 -12 21
-7 5 -8 3 -3 -6 4 -7 -6 -3 -23 10 -16 12 -35 19 -41 16 -6 -4 -11 -3 -11 2 0
6 -7 13 -16 16 -9 4 -13 2 -8 -5 5 -8 2 -9 -11 -1 -13 7 -22 6 -31 -3 -7 -7
-27 -11 -43 -9 -20 2 -31 -1 -31 -9 0 -7 -3 -8 -8 -2 -7 11 -21 15 -64 23 -15
2 -26 7 -23 11 4 8 -6 10 -60 13 -19 1 -35 5 -35 8 0 3 -20 7 -45 7 -25 1 -45
-3 -45 -8 0 -10 -21 -8 -30 2 -3 3 -14 -2 -24 -12z"/>
<path d="M3986 5918 c3 -5 10 -6 15 -3 13 9 11 12 -6 12 -8 0 -12 -4 -9 -9z"/>
<path d="M2319 1463 c-13 -16 -12 -17 4 -4 9 7 17 15 17 17 0 8 -8 3 -21 -13z"/>
<path d="M1526 1093 c-6 -14 -5 -15 5 -6 7 7 10 15 7 18 -3 3 -9 -2 -12 -12z"/>
</g>
</svg>
